# xmcd
#
# Track frame offsets: 
#        150
#        11735
#        29084
#        42031
#        64685
#        77333
#        91124
#        107060
#        120925
#        135552
#        150981
#        162456
#        178892
#
# Disc length: 2709 seconds
#
# Revision: 1
# Processed by: cddbd v1.5.2PL0 Copyright (c) Steve Scherf et al.
# Submitted via: ExactAudioCopy v1.0b4
#
DISCID=970a930d
DTITLE=Braithwaite and Whiteley - Night bird Blues
DYEAR=2009
DGENRE=Blues
TTITLE0=It's a brand new Day
TTITLE1=All the Rubies
TTITLE2=Judge and Jury blues
TTITLE3=Look Around Now
TTITLE4=Over in A Hurry
TTITLE5=Confectionary Baby
TTITLE6=One Thing I cannot do
TTITLE7=Night Bird blues
TTITLE8=Bumblebee's Blues
TTITLE9=The Loving you Bring
TTITLE10=Greedy Blues
TTITLE11=Sweet Dreams Baby
TTITLE12=The Heart of Summertime
EXTD=
EXTT0=
EXTT1=
EXTT2=
EXTT3=
EXTT4=
EXTT5=
EXTT6=
EXTT7=
EXTT8=
EXTT9=
EXTT10=
EXTT11=
EXTT12=
PLAYORDER=
